<?xml version="1.0" encoding="utf-8"?>
<!-- Generator: Adobe Illustrator 16.0.0, SVG Export Plug-In . SVG Version: 6.00 Build 0)  -->
<!DOCTYPE svg PUBLIC "-//W3C//DTD SVG 1.1//EN" "http://www.w3.org/Graphics/SVG/1.1/DTD/svg11.dtd">
<svg version="1.1" id="Layer_1" xmlns="http://www.w3.org/2000/svg" xmlns:xlink="http://www.w3.org/1999/xlink" x="0px" y="0px"
	 width="1965.313px" height="810.029px" viewBox="0 0 1965.313 810.029" enable-background="new 0 0 1965.313 810.029"
	 xml:space="preserve">
<path fill="none" stroke="#000000" stroke-miterlimit="10" d="M15.391,416.569c-8.617,9.451-1.308,24.667,7.652,33.764
	c25.463,25.729,62.57,37.09,98.72,39.161c36.159,2.088,72.192-4.058,108.113-8.437c21.375-2.618,44.169-5.176,52.955,14.503
	c1.896,4.339,8.306,21.399,12.88,20.151c2.671-0.781,4.634-11.252,5.47-13.854c4.613-14.438,7.959-28.112,13.883-43.328
	c6.713,14.146,6.41,37.264,13.417,48.549c17.691-39.531,21.739-104.298,28.682-113.341c7.838-10.161,16.684,121.847,23.151,139.683
	c2.557,6.527,16.916-87.34,20.365-93.271c2.215-3.752,5.165,2.079,8.134,12.89c4.273,15.401,11.816,45.112,18.525,57.011
	c2.563,4.628,10.215-50.283,17.456-51.883c5.213-1.129,34.79,21.817,55.274,21.817c42.233,0.349,83.587,12.106,119.68,34.056
	c24.051,14.677,47.796,34.533,75.994,33.996c21.809-1.07,41.639-12.975,52.836-31.731c11.237-17.099,14.168-36.812,6.415-55.752
	l-36.7-93.137c-4.051-9.633-7.371-19.575-9.903-29.725c-3.392-19.291-3.951-38.97-1.737-58.425
	c0.106-14.12,2.723-28.111,7.73-41.305c7.362-16.346,21.547-28.354,35.618-39.827c8.134-6.772,19.469-13.795,28.376-8.02
	c8.912,5.763,7.492,17.835,11.879,26.392c2.787,4.485,6.36,8.399,10.568,11.595l21.379,18.479
	c8.605,7.428,18.593,15.278,29.686,14.329c4.832-0.675,9.502-2.161,13.828-4.398l56.984-25.495
	c27.905-12.491,56.169-25.086,86.216-30.778c30.039-5.702,62.513-3.996,89.048,10.939c4.375,2.97,9.276,5.125,14.424,6.354
	c4.143,0.433,8.324-0.09,12.225-1.543c14.101-4.78,25.633-15.169,31.883-28.708c3.167-5.027,3.167-11.437,0-16.476
	c-2.338-1.949-4.893-3.647-7.596-5.049c-6.975-6.087-9.06-16.065-5.114-24.434c4.044-8.051,9.853-15.104,16.973-20.623
	c16.104,6.031,31.763,13.137,46.897,21.284c9.889,4.746,18.853,11.231,26.479,19.128c7.955,10.119,13.988,21.593,17.815,33.884
	c6.059,13.893,9.771,28.696,10.99,43.801c0,11.889-2.616,23.781-2.312,36.081c0.469,20.564,10.268,40.119,10.799,60.678
	c0.896,32.395-20.777,61.692-22.32,94.09c-0.542,10.763,1.186,21.817-2.13,32.099c-6.946,21.576-32.426,30.377-54.802,33.755
	c4.392-33.939,8.427-70.252-6.882-101.039c-5.413-9.886-11.646-19.291-18.64-28.117c-19.237-26.218-131.135-114.448-165.861-92.867
	c-33.772,22.781,64.171,7.823,93.845,18.757c38.164,13.91,66.021,48.806,79.438,87.199c13.406,38.408,14.011,80.064,10.81,120.598
	c-0.511,12.266-2.765,24.399-6.71,36.024c-3.029,7.841-7.419,15.082-11.1,22.7c-10.507,21.638-14.958,45.591-20.418,68.959
	c-3.993,19.143-10.103,37.778-18.227,55.572c-28.845,56.845-88.295,91.492-151.922,88.509c-11.6-0.467-23.034-3.05-33.724-7.616
	c-10.343-5.209-19.866-11.886-28.318-19.794c-23.726-22.621-43.577-48.982-58.775-78.047l-25.938-51.713
	c-6.975-12.503-11.85-37.979-3.931-48.864c-1.648,0.011-3.073-1.155-3.401-2.797c-0.371-1.621-0.371-3.305,0-4.934
	c-1.252,2.245-2.864,4.26-4.807,5.935c-1.102,1.441-3.154,1.753-4.626,0.711c-0.942-1.211-1.27-2.779-0.954-4.266
	c1.132-6.346,3.482-12.409,6.949-17.839c-1.542,3.185-3.821,5.952-6.64,8.091c-0.442,0.398-1.016,0.651-1.611,0.711
	c-0.774-0.06-1.495-0.416-2.013-1.012c-1.795-2.035-2.703-4.724-2.492-7.425c0.23-2.579,0.627-5.14,1.185-7.66
	c0.688-4.568,0.401-9.239-0.826-13.674c1.256,3.643,0.66,7.688-1.606,10.813c-0.411,0.59-0.989,1.025-1.673,1.256
	c-2.022-0.053-3.723-1.515-4.099-3.51c-0.813-4.519,0.577-9.158,3.738-12.479l15.511-21.46c-1.982,2.031-3.699,4.285-5.162,6.707
	c-3.221,4.774-6.919,9.203-11.061,13.193c-1.043,1.149-2.337,2.058-3.778,2.619c-1.588,0.542-3.33,0.151-4.52-1.015
	c-1.694-2.371-2.015-5.471-0.819-8.144c1.125-3.563,2.773-6.834,3.609-10.521c1.05-3.839,0.631-7.928-1.19-11.465
	c1.359,1.515,2.068,3.501,1.972,5.521c-0.112,1.88-0.632,3.698-1.538,5.355c-0.89,2.156-2.687,3.83-4.93,4.517
	c-2.583,0.267-4.917-1.532-5.282-4.114c-0.057-1.085,0.174-2.164,0.657-3.145c1.565-3.769,3.839-7.196,6.708-10.11l-5.12,4.935
	c-0.822,1.096-2.127,1.699-3.497,1.602c-0.982-0.34-1.818-1.015-2.381-1.889c-3.326-4.634-4.676-12.611-5.395-15.849
	c-9.988-27.755-34.72-75.318-44.624-103.07c-14.897-41.677-29.632-88.86-10.51-128.811c1.717-4.008,4.237-7.61,7.416-10.586
	c2.549-2.254,5.818-3.796,8.492-5.932c6.72-5.413,9.665-14.096,14.13-21.522c4.44-7.425,12.393-14.438,20.776-12.359
	c10.279,2.549,14.714,17.052,25.289,18.243c1.373-12.125-14.415-17.649-23.032-26.273c-5.372-5.18-7.864-12.654-6.709-20.03
	c1.432-7.407,7.437-13.067,14.914-14.031c5.152,0.211,10.25,1.178,15.125,2.847c12.616,1.939,25.483-1.34,35.628-9.096
	c10.036-7.765,18.965-16.869,26.541-27.047c7.433-9.158,15.376-20.271,12.285-31.683c-3.164-8.088-9.301-14.658-17.165-18.37
	c-11.884-7.109-24.606-12.744-37.868-16.762c0.92,4.623-0.354,9.414-3.452,12.958c-8.259-8.489-20.428-11.887-31.869-8.911
	c-2.445,0.48-4.637,1.784-6.243,3.684c-1.218,2.097-1.823,4.479-1.778,6.893l-2.427,35.073c-0.712,10.333-0.712,22.23,7.355,28.162
	c5.742,3.266,12.165,5.131,18.766,5.472c12.586,2.343,24.06,8.73,32.711,18.192c-25.089-16.557-58.507-12.114-78.428,10.395
	c-4.233,4.645-6.844,10.56-7.422,16.826c-0.41,6.404,3.436,12.319,9.453,14.56c8.128,2.501,15.614-4.69,20.355-11.887
	c4.756-7.197,8.667-15.7,16.621-18.608c9.85-3.571,22.142,3.152,30.988-2.315c8.839-5.466,8.308-18.951,15.246-26.685
	c6.05-6.651,16.15-7.483,25.122-6.651c8.814,1.829,17.898,1.933,26.766,0.298c8.305-2.619,15.662-12.303,11.875-20.446
	c-10.22-3.091-20.303,3.209-30.279,7.728c-9.979,4.516-23.754,6.483-29.691-2.2l23.047-50.227c1.214-3.481,3.405-6.556,6.287-8.86
	c7.063-4.631,16.262,1.436,21.781,7.913c6.938,8.194,12.94,17.715,22.254,22.877c9.325,5.173,23.982,2.801,27.143-7.186
	c3.132-9.987-7.363-20.146-17.817-20.567c-10.442-0.416-20,5.769-28.259,12.244c-5.586,4.353-11.396,10.049-10.923,17.068
	c0.476,10.461,13.848,14.382,24.229,15.396c15.554,1.478,35.857-0.832,39.896-15.995c1.38-7.464-0.568-15.152-5.335-21.042
	c-4.805-6.814-11.282-12.286-18.795-15.894c-24.364-11.696-53.589-1.408-65.274,22.972c-2.597-18.462,1.33-37.256,11.101-53.138
	c1.334-2.616,3.399-4.797,5.925-6.298c2.667-1.006,5.567-1.287,8.382-0.82c16.976,0.983,33.229,7.216,46.534,17.827
	c13.357,10.917,20.107,28.008,17.809,45.124c-1.659,5.146-2.329,10.583-1.958,15.981c1.125,5.339,7.356,9.99,11.872,7.014
	c-3.895-26.195,0.124-52.961,11.588-76.853c4.814,2.875,8.292,7.559,9.668,13.016c21.317,3.693,41.442-19.423,62.218-13.491
	c7.891,3.06,14.812,8.225,20.002,14.924c12.355,13.314,24.23,26.996,35.629,41.063c-10.664-3.01-22.028-2.352-32.288,1.852
	c-10.507,4.339-23.509,11.946-31.644,3.985c-2.342-3.097-4.466-6.351-6.349-9.746c-6.238-8.208-18.414-8.149-28.683-7.374
	c-4.353,0.048-8.651,0.975-12.642,2.734c-4.966,3.499-9.033,8.129-11.877,13.494c-13.228,18.974-32.857,32.527-55.269,38.158
	c2.262,9.271,15.269,8.793,24.817,8.793c36.578-0.894,65.482,29.298,98.973,44.098c19.659,8.658,41.227,12.014,62.572,9.748
	c19.603-2.085,42.151-8.138,56.999,4.876c-13.216,2.11-24.251,11.201-28.859,23.771c-1.43,4.459-2.967,9.874-7.359,11.474
	c-3.647,0.638-7.404,0.084-10.698-1.603c-10.734-3.392-22.258-0.713-33.479-0.356c-25.519,0.554-49.78-11.103-65.304-31.38
	c13.235,4.041,26.896-3.215,39.785-8.436c12.87-5.232,29.801-7.615,38.645,3.082c2.184,2.622,3.613,5.713,5.929,8.149
	c7.362,7.728,21.02,4.867,28.68-2.558c7.649-7.427,11.324-17.953,16.141-27.457c4.699-7.626,8.377-15.849,10.923-24.433
	c2.549-8.93-0.871-18.479-8.492-23.771c-3.377-1.897-7.356-2.38-10.739-4.277c-7.663-4.277-9.861-14.084-14.91-21.281
	c-9.442-13.378-27.846-16.354-44.23-16.354c-24.041,0.236-52.062,8.332-60.257,30.978c-2.191,6.112-2.734,12.884-5.232,18.836
	c-2.076,6.374-7.913,10.771-14.601,10.985c0.562,6.761,0.171,13.567-1.184,20.215c-17.498-13.823-40.498-18.499-61.984-12.606
	c2.918,8.427,7.171,16.338,12.585,23.417c1.902,3.383,5.447,5.491,9.324,5.527c4.042-0.714,5.922-5.221,8.538-8.374
	c6.655-8.438,19.179-7.894,30.405-4.39c11.223,3.499,22.741,11.1,23.096,22.641c-0.121,5.343-2.24,10.454-5.93,14.32
	c-10.88,11.716-28.848,13.258-41.552,3.569c-4.411-4.263-8.395-8.934-11.88-13.969c-20.779-24.76-53.835-35.536-85.2-27.756
	c-1.848,0.293-3.526,1.242-4.742,2.673c-1.007,3.229-0.529,6.735,1.309,9.574c1.067,3.212-0.763,8.196-3.925,7.017
	c-0.594-6.301-11.45-6.301-14.297-0.354c-1.984,6.196-1.194,12.952,2.131,18.535c2.543,7.262,6.48,13.941,11.578,19.679
	c5.291,5.764,13.453,7.919,20.899,5.528c3.968-1.655,7.067-4.982,10.854-6.955c13.243-6.84,31.54,3.453,43.824-3.083
	c12.277-6.545,12.873-24.619,6.937-37.335c-10.216-22.761-33.896-37.148-58.365-40.588c-24.751-2.568-49.703,2.279-71.715,13.902
	c-3.401,1.27-6.31,3.607-8.315,6.651c-1.306,3.942-1.689,8.129-1.126,12.243c-0.241,14.739-12.479,26.21-15.387,41.069
	c-2.911,14.862,4.623,29.536,12.227,42.617c3.932,7.739,9.263,14.68,15.746,20.455c6.647,5.78,15.854,7.612,24.218,4.805
	c9.259-3.923,14.719-14.98,24.572-16.939c3.138-0.593,6.417-0.185,9.492-1.017c14.129-3.74,16.517-29.596,31.059-28.053
	c-0.471,0.756-0.836,1.576-1.066,2.444c-1.243,4.65,1.518,9.441,6.172,10.698c5.625,1.028,11.381-0.899,15.267-5.12
	c4.096-3.853,7.004-8.739,10.927-12.771c5.624-5.843,12.973-9.715,20.95-11.063c3.449,15.096-6.408,32.754,3.093,45.411
	c9.496,12.662,29.266,7.427,44.698,10.875c14.072,3.091,24.995,13.909,35.982,23.241c22.616,19.255,48.682,33.993,74.146,49.334
	c21.02,12.662,43.101,27.575,52.895,49.336c9.798,21.753,6.598,46.715,3.155,70.499c-0.244,3.137-1.135,6.186-2.613,8.965
	c-2.622,3.529-6.345,6.05-10.571,7.19c-29.45,10.234-61.926-1.889-93.087,0c-5.935-0.115-11.743,1.751-16.509,5.294
	c-4.755,3.881-5.474,10.881-1.604,15.641c2.695,2.103,6.022,3.207,9.439,3.145c19.49,1.31,38.762-4.687,54.085-16.817
	c-24.72-8.937-52.124-6.478-74.86,6.716c26.016,9.967,55.032,8.506,79.907-4.047c-29.576-20.89-42.111-30.528-77.861-24.892
	c-7.404,2.215-48.282,7.905-61.622,2.616c-13.412-4.462-25.773-11.65-38.95-16.826c-26.936-10.462-56.459-12.34-84.487-5.34
	c-2.691,0.501-5.245,1.58-7.484,3.156c-3.756,3.661-5.328,9.023-4.152,14.146c2.434,15.38,18.039,25.794,33.487,27.994
	c15.423,2.2,30.917-1.838,46.305-4.643c15.375-2.793,31.869-4.339,45.943,2.315c2.924,1.169,5.391,3.243,7.004,5.943
	c1.304,3.689,1.304,7.723,0,11.42l-12.882,57.419c-1.595,7.312-3.082,15.753,1.31,21.68c6.836,9.399,21.494,6.123,32.128,1.38
	c10.619-4.758,24.338-9.513,32.706-1.425c6.772,6.361,5.524,17.829,0,25.2c-6.132,6.904-13.71,12.331-22.205,15.928
	c-6.527,3.386-14.07,8.908-12.938,16.226l52.363,10.703c5.94,1.181,13.592,4.938,11.872,10.872c-1.13,2.678-3.254,4.8-5.932,5.935
	c-14.177,9.417-29.678,16.664-46.007,21.47c-19.468,4.591-39.934,2.214-57.824-6.717c-8.915-4.445-17.639-11.526-19.06-21.334
	c20.232-12.463,43.487-19.142,67.26-19.322c23.925,0.009,46.852,9.577,63.707,26.564c-18.465,5.406-38.055-0.06-56.994-3.395
	c-26.213-4.559-52.996-4.924-79.312-1.068c7.97-19.9,29.399-30.835,50.167-25.603c3.343,1.363,6.937,2.058,10.567,2.074
	c4.909-1.142,9.262-3.979,12.282-8.025l28.141-29.72c3.827-3.068,6.176-7.632,6.466-12.527c-0.525-7.672-10.797-10.535-18.342-8.925
	c-7.961,2.549-15.75,5.609-23.337,9.146c-7.748,3.493-16.756,2.656-23.738-2.197c-10.619-9.203-4.338-26.021,0-39.329
	c3.187-9.875,4.79-20.196,4.743-30.568c-0.061-13.267-3.376-27.398-13.239-36.256c-9.9-7.66-22.436-11.11-34.851-9.576
	c-18.022,1.211-35.302,7.722-49.639,18.734c22.875,18.538,55.936,17.147,77.185-3.226c-10.618-8.908-24.222-13.452-38.062-12.722
	c-13.693,0.787-27.233,3.308-40.296,7.495c9.009,10.456,23.919,13.134,37.992,12.96c14.065-0.183,28.2-2.333,41.554,1.186
	c3.811-8.268-7.472-15.287-16.494-16.826c-16.88-2.923-34.137-2.923-51.003,0c-8.035,1.989-16.285,3.001-24.579,3.034
	c-8.44-0.099-16.2-4.614-20.484-11.9c-3.716-10.17,0.354-21.542,9.684-27.038c9.267-5.042,19.964-6.896,30.39-5.23
	c31.824,3.325,62.445,19.092,94.215,15.217c20.658-2.492,39.241-13.491,59.074-19.438c37.773-11.625,78.693-6.859,112.802,13.141
	c-33.858-10.614-70.319-9.353-103.368,3.558c-8.596,4.26-17.818,7.138-27.316,8.509c-17.76,1.06-33.072-10.987-48.922-19.021
	c-21.746-10.945-46.397-14.725-70.421-10.821c-18.683,3.892-36.813,10.11-53.964,18.493c22.251-7.849,46.371-8.65,69.1-2.333
	c26.846,7.307,51.594,24.664,79.377,23.768c23.571-0.762,44.413-14.494,65.84-24.534c21.427-10.052,48.145-16.172,67.562-2.689
	c7.247,6.151,14.051,12.785,20.37,19.867c6.933,6.475,16.431,11.592,25.634,9.211c14.37-3.692,18.411-22.356,16.565-37.093
	c-5.938-47.013-43.753-84.695-78.657-115.482c-34.918-30.79-76.178-62.055-122.544-58.138
	c-37.585,2.977-68.811,28.77-104.427,41.606c-20.724,7.553-44.355,11.474-58.902,28.062c-11.339,12.659-14.9,31.093-14.9,48.318
	c0,17.246,2.201,34.545,0,51.604c-1.891,14.795-3.592,8.59,16.867,56.069c31.027,48.918-48.716,1.326,1.766-40.285
	c50.483-41.609,15.14-28.775,115.735-40.285c100.597-11.51,182.51,7.193,182.51,7.193c50.222,14.812,188.415,49.098,285.956,92.193
	c135.951,60.099,152.162,85.063,240.146,140.503c87.978,55.454,150.085,105.513,298.915,133.922"/>
</svg>
