<?xml version="1.0" encoding="utf-8"?>
<!-- Generator: Adobe Illustrator 16.0.0, SVG Export Plug-In . SVG Version: 6.00 Build 0)  -->
<!DOCTYPE svg PUBLIC "-//W3C//DTD SVG 1.1//EN" "http://www.w3.org/Graphics/SVG/1.1/DTD/svg11.dtd">
<svg version="1.1" id="Layer_1" xmlns="http://www.w3.org/2000/svg" xmlns:xlink="http://www.w3.org/1999/xlink" x="0px" y="0px"
	 width="1965.313px" height="810.029px" viewBox="0 0 1965.313 810.029" enable-background="new 0 0 1965.313 810.029"
	 xml:space="preserve">
<path fill="none" stroke="#010101" stroke-miterlimit="10" d="M23.239,450.59c-7.485,18.265-5.474,39.051,5.384,55.537
	c10.819,18.101,29.964,29.577,51.019,30.604c27.229,0.521,50.156-18.621,73.374-32.786c34.855-21.169,74.781-32.51,115.563-32.845
	c19.781,0,48.333-22.132,53.369-21.04c6.996,1.547,14.385,54.505,16.857,50.037c6.477-11.47,13.758-40.13,17.884-54.978
	c2.868-10.43,5.727-16.05,7.86-12.441c3.322,5.731,17.2,96.25,19.663,89.949c6.244-17.194,14.788-144.516,22.354-134.715
	c6.699,8.72,10.612,71.188,27.688,109.312c6.765-10.885,6.474-33.182,12.961-46.824c5.726,14.677,8.948,27.862,13.404,41.787
	c0.803,2.512,2.704,12.61,5.284,13.364c4.414,1.2,10.609-15.251,12.438-19.437c8.483-18.977,30.49-16.512,51.136-13.987
	c34.676,4.228,69.475,10.149,104.38,8.137c34.905-2.002,70.735-12.955,95.323-37.775c8.659-8.774,36.827,76.946,28.51,67.83
	c-10.23,5.356,7.165,28.12-4.259,29.751c-11.647,1.538-23.279-2.98-30.836-11.977c-5.402-9.065-7.428-19.735-5.73-30.157
	c1.446-18.559,5.877-36.782,13.131-53.937c3.894-9.179,8.479-18.467,8.479-28.385c-0.295-16.911-14.154-29.983-20.525-45.572
	c-8.127-20.068-3.373-43.453,7.285-62.43c10.665-18.982,26.026-34.686,40.131-51.134c14.847-17.382,28.49-35.72,42.074-54.068
	c5.678-6.875,10.222-14.619,13.466-22.919c1.406-6.651,3.327-13.195,5.737-19.553c7.502-14.333,26.657-18.106,43.05-17.201
	c16.396,0.918,33.132,5.496,48.898,0.918c9.597-3.77,18.913-8.227,27.861-13.357c14.3-5.95,29.632-8.997,45.113-8.997
	c61.544-1.787,121.533,19.453,168.248,59.555c5.245,4.211,9.812,9.205,13.576,14.791c4.031,7.461,6.941,15.475,8.611,23.787
	c10.71,40.838,27.552,79.819,49.924,115.627c7.614,10.799,13.926,22.448,18.807,34.731c6.524,19.492,4.291,41.049,11.055,60.413
	c3.05,8.557,7.688,16.452,10.798,24.998c12.593,35.031-3.672,73.213-19.626,106.854c12.404-6.149,21.581-17.3,25.229-30.653
	c3.526-13.227,5.132-26.868,4.811-40.536l1.327-55.594c0.562-24.255,0.734-49.693-12.046-70.107
	c-7.217-11.524-17.94-20.297-27.236-30.264c-18.371-19.75-31.089-44.088-36.792-70.452c-4.655-21.567-4.655-44.542-14.619-64.151
	c-5.468-11.551-12.442-22.327-20.74-32.039c-6.943-7.278-16.395-17.371-24.143-24.134c-3.955-3.503-12.777-12.669-11.455-20.235
	c1.151-6.488,5.712-4.709,7.682-10.953c0.7-2.317,0.476-4.793-0.639-6.94c-8.873,1.46-16.796,6.394-22.017,13.705
	c4.987-6.401,10.9-12.024,17.542-16.676l-14.55,10.777c-3.115,2.955-7.199,4.65-11.479,4.759c-0.564-0.025-1.114-0.249-1.541-0.636
	c-0.553-0.898-0.553-2.034,0-2.93c3.252-7.393,8.9-13.458,16.049-17.203c-6.64,6.656-14.897,11.44-23.959,13.875
	c-2.186,0.583-4.48,0.583-6.66,0c-2.188-0.703-3.798-2.549-4.233-4.81c-0.089-1.661,0.309-3.317,1.148-4.759
	c2.333-4.681,5.803-8.721,10.091-11.752c1.842-1.496,4.091-2.375,6.46-2.527c2.455-0.04,4.566,1.714,4.981,4.124
	c-0.623,3.678-4.034,6.208-7.73,5.726c-1.957,0.197-3.936-0.14-5.739-0.964c-1.776-0.871-2.851-2.729-2.733-4.706
	c-2.951,2.635-5.665,5.541-8.088,8.653c-2.477,3.148-6.309,4.936-10.334,4.813c2.717-18.629,21.396-30.835,28.675-48.032
	c-7.559,11.628-16.119,22.571-25.565,32.728c-3.19,3.667-7.242,6.494-11.806,8.2c-4.7,1.653-9.945,0.21-13.118-3.616
	c0.05,0.034,0.092,0.064,0.15,0.101c2.958,1.891,6.898,1.022,8.784-1.933c1.733-3.02,2.287-6.572,1.545-9.979
	c-0.756-3.367-1.193-6.81-1.255-10.267c-4.281,9.769-11.323,18.072-20.294,23.84c-1.237,1.076-2.902,1.465-4.479,1.042
	c-1.894-1.704-2.235-4.549-0.791-6.648c1.755-4.249,3.85-8.348,6.236-12.273c1.445-1.561,1.724-3.874,0.688-5.726
	c-9.776,4.628-17.513,12.66-21.771,22.582c3.334-7.998,7.407-15.679,12.145-22.926c-6.018,8.393-12.743,16.228-20.124,23.444
	c-0.942,1.09-2.248,1.785-3.677,1.953c-2.109-0.292-3.65-2.163-3.533-4.3c0.199-2.059,0.959-4.037,2.163-5.723l8.214-13.929
	c-5.86,10.267-13.749,19.24-23.162,26.378c-3.162,2.611-6.938,4.398-10.945,5.21c-4.12,0.771-8.314-0.983-10.661-4.465
	c-1.916-4.518-0.829-9.763,2.743-13.13c4.414-4.74,10.773-7.152,17.199-6.536c-2.112,0.62-4.313,0.905-6.533,0.866
	c-1.255,0.056-2.507-0.238-3.606-0.866c-2.149-2.199-2.542-5.558-0.963-8.193c3.574-7.973,11.478-13.145,20.224-13.242
	c-1.61,3.222-4.773,5.375-8.364,5.737c-3.508,0.269-7.03,0.269-10.554,0c-3.493,0-11.86,9.178-14.096,13.528
	c-4.76,9.233-10.197,24.134-22.584,27.739c-37.088,10.902-51.598,37.21-86.787,44.723c-11.465,2.64-23.955,2.64-34.395,8.366
	c-7.782,4.823-14.622,11.017-20.17,18.289c-20.181,22.922-40.529,46.829-54.116,74.518c-7.805,16.74-14.043,34.171-18.634,52.058
	c-6.478,22.696-11.756,46.597-6.478,69.522c2.692,13.013,9.053,25.163,11.463,38.348c4.303,23.397-4.124,47.017-7.16,70.573
	c-3.03,23.548,2.123,51.864,23.389,62.533c3.894,2.419,8.723,2.803,12.956,1.025c3.205-2.304,5.513-5.638,6.539-9.452
	c9.923-24.759,20.003-50.682,17.654-77.271c-1.193-13.593-5.5-27.526-0.74-40.134c3.248-7.235,8.015-13.688,13.994-18.917
	c12.384-12.211,26.717-24.129,43.972-26.365c17.248-2.234,37.315,9.638,37.775,26.839c-17.804-22.571-49.267-29.029-74.523-15.312
	c-4.745,2.249-8.309,6.415-9.805,11.457c-1.547,6.996,4.18,13.472,9.918,17.537c25.153,16.488,58.537,12.382,78.934-9.741
	c-12.102,3.16-23.574,8.836-35.717,11.47c-12.156,2.639-26.025,2.126-35.772-5.73c-6.991-5.73-10.205-17.88-2.806-22.929
	c2.625-1.494,5.58-2.342,8.601-2.462c8.337-0.961,16.679-1.586,25.055-1.894c7.296-1.021,14.702,0.632,20.864,4.647
	c5.614,4.637,6.183,15.359-0.518,18.229c-6.702,2.869-34.332,63.191-18.554,108.372c15.78,45.181,100.405,2.151,95.385-2.151
	c-5.02-4.303,24.848,19.382-1.435-22.233c-26.283-41.61-2.151-143.43,2.151-158.489c4.304-15.061,33.229-8.846,33.229-8.846
	c16.495,15.778,41.596,16.733,70.522,15.299c28.928-1.434-32.988-30.599-39.925-31.316c-6.931-0.717-47.093,8.606-51.156,7.41
	c-4.064-1.196-7.651,3.824,2.247,9.484l81.55,13.556c-5.255-15.524-22.573-24.412-38.967-24.412
	c-16.441,1.134-32.224,6.999-45.399,16.906c-4.112,2.283-7.451,5.701-9.634,9.862c-1.19,3.698-1.519,7.623-0.966,11.468
	l1.775,25.965c-0.041,8.099,1.934,16.083,5.735,23.218c7.104,11.068,21.95,14.517,35.072,13.307
	c10.257-0.901,21.566-5.319,25.225-14.959c4.17-11.125-4.757-23.963-16.215-27.288c-11.827-2.259-24.063,0.431-33.826,7.46
	c-8.878,5.381-17.479,15.688-14.161,24.921c3.325,9.235,14.967,11.695,24.714,12.729c17.031,1.829,39.434,0.342,44.365-16.107
	c2.218-10.203-2.427-20.649-11.463-25.853c-9.035-4.838-19.396-6.607-29.532-5.042c-14.263,1.435-29.402,7.112-36.505,19.602
	c-3.942,8.328-5.907,17.444-5.737,26.655c-1.381,24.651-2.006,51.703,13.244,71.08c6.928,8.769,17.254,20.017,10.66,29.011
	c-5.734,7.782-17.775,4.12-27.406,5.042c-12.265,1.141-22.122,10.766-33.998,14.213c-19.219,4.75-38.709-6.66-43.971-25.734
	c-2.922-12.78,1.435-26.031,5.731-38.416l16.857-48.606c8.775-25.277,16.393-56.63-2.001-76.066
	c-10.57-9.95-24.952-14.786-39.392-13.241c-14.229,1.621-28.152,5.312-41.327,10.947c-0.52-14.271,18.065-22.182,32.448-20.008
	c14.383,2.171,28.081,9.746,42.53,8.365c-2.924-15.59-21.672-24.422-37.325-20.465c-15.638,3.959-26.76,17.495-32.839,32.217
	c-5.178,15.046-8.673,30.616-10.437,46.425c-8.075,47.124-25.443,95.33-12.945,141.476c-16.81,5.789-37.1,7.681-50.743-3.778
	c-17.71-14.673-15.015-42.639-6.589-64.032c8.422-21.375,21.208-42.59,18.512-65.511c-2.179-18.065-13.872-34-15.99-52.058
	c-3.781-33.018,24.017-60.247,47.809-83.176c22.286-21.72,42.991-45.014,61.961-69.701c4.763-7.37,11.133-13.561,18.635-18.115
	c14.389-7.159,32.39-0.795,47.465-6.532c8.104-4.07,15.643-9.203,22.405-15.248c34.227-24.873,81.131-18.465,122.731-10.948
	c6.079,1.095,13.245,3.271,15.016,9.005c-22.739,2.903-43.906,13.101-60.347,29.063c24.482-18.058,55.035-25.854,85.17-21.729
	c30.109,4.409,57.378,20.158,76.242,44.029c29.692,37.944,33.937,89.941,57.322,132.132c9.27,16.792,21.549,31.811,31.067,48.493
	c29.296,52.646,29.702,116.6,1.081,169.621v-22.931c-0.549,16.109-14.385,29.64-30.039,33.654
	c-15.945,3.157-32.513,0.711-46.873-6.945c11.152-24.764,20.104-50.47,26.747-76.8c3.665-11.1,4.466-22.913,2.377-34.39
	c-2.869-11.239-12.735-21.498-24.201-21.097c6.366-5.561,17.253-0.169,20.127,7.808c1.973,8.288,1.232,17.018-2.134,24.861
	l-31.062,100.324c-2.332,7.389-10.426,16.788-16.152,11.463c-2.062-2.474-3.043-5.679-2.751-8.887l-3.608-98.074
	c11.238,51.62,0.546,105.593-29.521,149.029c-14.365,19.169-30.516,36.924-48.262,53.021l-65.178,63.052
	c-8.594,9.121-18.521,16.85-29.465,22.92c-23.842,11.813-53.311,6.542-76.183-7.054c-22.871-13.579-40.299-34.502-56.742-55.42
	c-10.298-12.415-19.255-25.856-26.72-40.139c-10.439-21.262-14.568-45.057-18.348-68.429c-7.571-46.854-14.625-94.544-8.889-141.658
	c3.391-28.429,11.234-56.056,13.305-84.722c2.003-27.46-1.382-55.54,5.267-82.256c6.653-26.713,21.182-55.478,48.691-55.995
	c39.622-1.163,79.693-35.96,123.292-32.629c22.452,2.569,44.6,7.405,66.081,14.445c21.548,5.367,42.306,13.574,61.688,24.425
	c18.864,11.466,35.14,29.114,40.582,50.612c8.425,33.309-10.034,66.72-17.944,100.208c-4.948,24.269-6.696,49.055-5.215,73.783
	c-0.218,4.628,0.664,9.262,2.646,13.461c5.726,9.687,20.226,9.637,29.454,3.498c9.228-6.148,14.965-16.222,22.129-24.707
	c7.173-8.489,17.603-16.111,28.682-13.996c16.672,3.213,21.253,26.252,14.775,41.97c-6.479,15.711-19.663,27.91-26.204,43.626
	c-6.12,14.788-6.304,32.272-16.103,44.943c-8.091,10.368-21.043,15.352-32.335,22.173c-25.447,15.478-42.579,41.152-61.226,64.368
	c-30.031,37.613-65.654,70.409-105.639,97.222c-8.165,5.801-16.976,10.65-26.242,14.452c-25.372,8.595-53.216,5.768-76.358-7.735
	c-45.896-28.96-74.65-78.595-76.92-132.826c-0.201-27.199,11.679-53.102,32.444-70.678c22.472-17.656,52.79-21.153,81.34-20.92
	c33.816,0,71.7,7.049,91.274,34.395c6.354,8.985,9.844,22.292,2.505,30.547c-5.721,6.247-15.068,6.931-23.444,6.247
	c-21.04-1.721-41.217-9.048-62.202-11.46c-25.452-2.707-50.956,2.227-76.467,4.625c-5.947,1.106-12.08,0.456-17.658-1.88
	c-9.169-4.874-11.46-18.059-6.7-27.33c5.33-9.032,13.77-15.817,23.724-19.095c24.135-9.701,50.964-9.233,76.981-8.659
	c17.4-0.421,34.779,1.65,51.593,6.135c17.009,4.673,31.216,16.428,38.986,32.278c2.129,4.193,2.611,9.037,1.379,13.584
	c-2.997,8.306-13.615,10.484-22.428,11.118c-31.186,2.233-62.524,1.649-93.607-1.768c-11.465-1.263-25.402-1.56-30.96,8.368
	c-1.854,3.949-2.667,8.306-2.351,12.662c0.423,34.498,16.021,67.073,42.654,89.025c4.676,4.653,11.048,7.222,17.654,7.099
	c9.86-1.312,14.851-12.374,17.949-21.834l28.666-86.669c78.861-8.725-5.43-63.407,59.498-33.107
	c0,27.969,80.322-46.614,149.885,0.718c24.883,44.367,193.702-85.054,244.773-97.049c21.731-5.093,46.896-34.676,55.893-32.956
	c4.47,0.858,7.53,23.558,9.693,36.92c1.839,10.883,9.294,45.114,19.703,38.916c3.85-2.293,27.119-136.373,35.623-129.773
	c11.464,8.934,6.169,158.332,21.426,155.519c15.262-2.817,18.922-157.177,33.768-161.482c6.946,1.658,19.66,113.447,31.189,116.13
	c6.479,1.497,10.786-45.849,16.58-44.081c5.775,1.777,6.117,44.034,11.961,44.545c4.706,0.456,9.388-44.095,15.771-41.738
	c8.764,3.324,8.539,38.81,25.277,42.596c9.788,2.235,15.648-3.215,24.58-7.844c45.181-23.631,132.932-36.637,215.376-0.875"/>
</svg>
